<svg xmlns="http://www.w3.org/2000/svg" width="40" height="40" viewBox="0 0 40 40">
  <g id="Grupo_60" data-name="Grupo 60" transform="translate(0 0)">
    <path id="apartment_FILL0_wght200_GRAD0_opsz24" d="M140-793.846v-30.589h9.412v-9.411h21.177v18.822H180v21.178H163.529v-9.412h-7.059v9.412Zm2.353-2.354h7.059v-7.059h-7.059Zm0-9.411h7.059v-7.06h-7.059Zm0-9.413h7.059v-7.059h-7.059Zm9.412,9.413h7.059v-7.06h-7.059Zm0-9.413h7.059v-7.059h-7.059Zm0-9.411h7.059v-7.059h-7.059Zm9.412,18.824h7.059v-7.06h-7.059Zm0-9.413h7.059v-7.059h-7.059Zm0-9.411h7.059v-7.059h-7.059Zm9.412,28.235h7.059v-7.059h-7.059Zm0-9.411h7.059v-7.06h-7.059Z" transform="translate(-140 833.846)" fill="#33a2ff"/>
  </g>
</svg>
