<svg xmlns="http://www.w3.org/2000/svg" width="31.505" height="40" viewBox="0 0 31.505 40">
  <g id="cursos_presenciales_acreditados" data-name="cursos presenciales acreditados" transform="translate(-6)">
    <g id="Grupo_60" data-name="Grupo 60" transform="translate(0 -2)">
      <path id="location_on_FILL0_wght200_GRAD0_opsz24" d="M211.914-820.619a3.435,3.435,0,0,0,2.53-1.056,3.473,3.473,0,0,0,1.048-2.538,3.435,3.435,0,0,0-1.056-2.53,3.473,3.473,0,0,0-2.538-1.048,3.435,3.435,0,0,0-2.53,1.056,3.473,3.473,0,0,0-1.048,2.538,3.436,3.436,0,0,0,1.056,2.53A3.473,3.473,0,0,0,211.914-820.619Zm-.008,17.639a53.191,53.191,0,0,0,9.9-11.08q3.637-5.633,3.637-9.744a13.827,13.827,0,0,0-3.857-10.055,12.94,12.94,0,0,0-9.676-3.964,12.94,12.94,0,0,0-9.676,3.964,13.827,13.827,0,0,0-3.857,10.056q0,4.111,3.637,9.744A53.191,53.191,0,0,0,211.906-802.98Zm0,2.98a68.43,68.43,0,0,1-11.789-12.907q-3.964-5.987-3.964-10.9a15.724,15.724,0,0,1,4.587-11.62A15.214,15.214,0,0,1,211.906-840a15.214,15.214,0,0,1,11.165,4.576,15.724,15.724,0,0,1,4.587,11.62q0,4.909-3.964,10.9A68.429,68.429,0,0,1,211.906-800ZM211.906-824.2Z" transform="translate(-190.154 842)" fill="#33a2ff"/>
    </g>
  </g>
</svg>
