<svg xmlns="http://www.w3.org/2000/svg" width="45" height="40" viewBox="0 0 45 40">
  <path id="formación_online" data-name="formación online" d="M135-760v-2.5h5v-5H124.038a3.91,3.91,0,0,1-2.882-1.157A3.91,3.91,0,0,1,120-771.537v-24.424a3.911,3.911,0,0,1,1.156-2.882A3.913,3.913,0,0,1,124.038-800h36.923a3.913,3.913,0,0,1,2.882,1.156A3.911,3.911,0,0,1,165-795.961v24.424a3.91,3.91,0,0,1-1.156,2.881,3.91,3.91,0,0,1-2.882,1.157H145v5h5v2.5Zm-10.961-10h36.923a1.472,1.472,0,0,0,1.058-.481,1.469,1.469,0,0,0,.481-1.057v-24.424a1.47,1.47,0,0,0-.481-1.058,1.471,1.471,0,0,0-1.058-.48H124.038a1.471,1.471,0,0,0-1.058.48,1.47,1.47,0,0,0-.481,1.058v24.424a1.469,1.469,0,0,0,.481,1.057A1.472,1.472,0,0,0,124.038-770Zm-1.539,0v0Z" transform="translate(-120 800)" fill="#33a2ff"/>
</svg>
