<svg xmlns="http://www.w3.org/2000/svg" width="37.646" height="40" viewBox="0 0 37.646 40">
  <path id="flanificacion_y_desarrollo" data-name="flanificacion y desarrollo" d="M188.5-800l-1.62-1.62,3.706-3.765-3.706-3.706,1.62-1.679L192.262-807l3.706-3.765,1.679,1.679-3.765,3.706,3.765,3.765L195.968-800l-3.706-3.706Zm-22.615-2.353a3.4,3.4,0,0,0,2.491-1.039,3.4,3.4,0,0,0,1.038-2.491,3.4,3.4,0,0,0-1.038-2.491,3.4,3.4,0,0,0-2.491-1.038,3.4,3.4,0,0,0-2.491,1.038,3.4,3.4,0,0,0-1.038,2.491,3.4,3.4,0,0,0,1.038,2.491A3.4,3.4,0,0,0,165.882-802.353Zm0,2.353a5.67,5.67,0,0,1-4.163-1.719A5.67,5.67,0,0,1,160-805.882a5.67,5.67,0,0,1,1.719-4.163,5.67,5.67,0,0,1,4.163-1.719,5.74,5.74,0,0,1,3.7,1.3,5.6,5.6,0,0,1,2.029,3.355,6.912,6.912,0,0,0,4.618-2.258,6.754,6.754,0,0,0,1.871-4.747v-8.733a10.2,10.2,0,0,1,3.1-7.486,10.2,10.2,0,0,1,7.486-3.1h4.425l-4.882-4.882L189.91-840l7.738,7.738-7.738,7.738-1.679-1.62,4.837-4.941h-4.38a7.944,7.944,0,0,0-5.837,2.4,7.944,7.944,0,0,0-2.4,5.837v8.733a8.912,8.912,0,0,1-2.561,6.382,9.492,9.492,0,0,1-6.253,2.989,5.608,5.608,0,0,1-2.016,3.416A5.739,5.739,0,0,1,165.882-800Zm-4.262-26.878L160-828.5l3.706-3.765L160-835.968l1.62-1.679,3.765,3.765,3.706-3.765,1.679,1.679L167-832.262l3.765,3.765-1.679,1.62-3.706-3.706Z" transform="translate(-160 840)" fill="#33a2ff"/>
</svg>
