<svg id="formacion_interna" data-name="formacion interna" xmlns="http://www.w3.org/2000/svg" xmlns:xlink="http://www.w3.org/1999/xlink" width="42.74" height="40" viewBox="0 0 42.74 40">
  <defs>
    <clipPath id="clip-path">
      <rect id="Rectángulo_4" data-name="Rectángulo 4" width="42.739" height="40" fill="#33a2ff"/>
    </clipPath>
  </defs>
  <g id="Grupo_59" data-name="Grupo 59" transform="translate(0 0)" clip-path="url(#clip-path)">
    <path id="Trazado_17" data-name="Trazado 17" d="M15.616,39.959a6.34,6.34,0,0,1-4.1-1.417,7.211,7.211,0,0,1-2.426-3.631,4.08,4.08,0,0,1-1.708,1.575,5.055,5.055,0,0,1-2.3.545,4.9,4.9,0,0,1-3.606-1.484A4.915,4.915,0,0,1,0,31.945,5.157,5.157,0,0,1,1.307,28.53a4.205,4.205,0,0,1,3.3-1.559,6.9,6.9,0,0,1-1.622-2.261,6.617,6.617,0,0,1-.6-2.75,6.407,6.407,0,0,1,.828-3.175,6.86,6.86,0,0,1,2.318-2.444,8.2,8.2,0,0,0,.374.963q.238.513.482.924A4.742,4.742,0,0,0,4.96,19.933a4.67,4.67,0,0,0-.486,2.078q0,3.163,2.34,4.079a27.974,27.974,0,0,0,4.817,1.4l.458.806q-.559,1.627-.908,2.754a7.067,7.067,0,0,0-.348,2.08,4.641,4.641,0,0,0,1.378,3.328,4.5,4.5,0,0,0,3.366,1.427,4.46,4.46,0,0,0,3.558-1.632,13.74,13.74,0,0,0,2.281-3.875A27.624,27.624,0,0,0,22.8,27.764q.492-2.372.824-3.879l2.011.56q-.418,2.018-1,4.693a25.634,25.634,0,0,1-1.661,5.074,12.845,12.845,0,0,1-2.831,4.072A6.277,6.277,0,0,1,15.616,39.959ZM5.088,35a2.942,2.942,0,0,0,2.155-.9,3.037,3.037,0,0,0,0-4.311,2.942,2.942,0,0,0-2.155-.9,2.942,2.942,0,0,0-2.155.9,3.037,3.037,0,0,0,0,4.311A2.942,2.942,0,0,0,5.088,35Zm12.376-8.391q-2.067-1.85-3.779-3.462a31.754,31.754,0,0,1-2.959-3.159,13.54,13.54,0,0,1-1.915-3.1,8.049,8.049,0,0,1-.67-3.224,6.728,6.728,0,0,1,6.818-6.818,7.069,7.069,0,0,1,1,.065,6.218,6.218,0,0,1,.847.181,5.072,5.072,0,0,1-.385-.965,3.811,3.811,0,0,1-.14-1.042,4.906,4.906,0,0,1,1.484-3.6,5.115,5.115,0,0,1,7.2,0,4.9,4.9,0,0,1,1.488,3.6,3.717,3.717,0,0,1-.14,1.042,5.2,5.2,0,0,1-.385.955,5.418,5.418,0,0,1,.847-.177,7.8,7.8,0,0,1,1-.059,6.484,6.484,0,0,1,4.036,1.313,6.631,6.631,0,0,1,2.367,3.354A6.916,6.916,0,0,0,33.1,11.44a8.619,8.619,0,0,0-1.1.063,4.514,4.514,0,0,0-1.669-1.895,4.571,4.571,0,0,0-2.54-.725,4.461,4.461,0,0,0-3.045.985,31.994,31.994,0,0,0-2.939,3.085h-.942a29.332,29.332,0,0,0-2.988-3.116,4.378,4.378,0,0,0-2.927-.955,4.642,4.642,0,0,0-4.783,4.783,5.647,5.647,0,0,0,.6,2.442,13.808,13.808,0,0,0,1.734,2.66,35.167,35.167,0,0,0,2.743,2.975q1.612,1.578,3.659,3.409ZM21.37,8.141a2.936,2.936,0,0,0,2.155-.9,2.938,2.938,0,0,0,.9-2.153,2.939,2.939,0,0,0-.9-2.155,3.037,3.037,0,0,0-4.311,0,2.939,2.939,0,0,0-.9,2.155,2.938,2.938,0,0,0,.9,2.153,2.936,2.936,0,0,0,2.155.9M26.993,40a6.769,6.769,0,0,1-1.431-.155,5.7,5.7,0,0,1-1.368-.493,7.1,7.1,0,0,0,.566-.861q.284-.5.515-.916a4.23,4.23,0,0,0,.9.269,5.254,5.254,0,0,0,.906.079A4.593,4.593,0,0,0,30.471,36.5a4.644,4.644,0,0,0,1.406-3.383,6.9,6.9,0,0,0-.348-2.062q-.348-1.105-.908-2.733l.5-.806A25.974,25.974,0,0,0,35.962,26.1q2.317-.934,2.316-4.1a4.131,4.131,0,0,0-1.736-3.655,6.765,6.765,0,0,0-3.908-1.189,19.762,19.762,0,0,0-4.787.7q-2.738.7-6.317,1.891l-.56-2.013q3.5-1.114,6.3-1.9a19.1,19.1,0,0,1,5.141-.788A8.9,8.9,0,0,1,37.9,16.854,6.053,6.053,0,0,1,40.313,22a6.409,6.409,0,0,1-.578,2.682,7.711,7.711,0,0,1-1.6,2.29,4.366,4.366,0,0,1,3.3,1.559,5.058,5.058,0,0,1,1.307,3.415,4.937,4.937,0,0,1-1.482,3.582,4.87,4.87,0,0,1-3.606,1.506,5.055,5.055,0,0,1-2.3-.545,4.08,4.08,0,0,1-1.708-1.575,7.241,7.241,0,0,1-2.465,3.651A6.522,6.522,0,0,1,26.993,40ZM37.7,35a2.855,2.855,0,0,0,2.129-.9,2.984,2.984,0,0,0,.873-2.155,3.02,3.02,0,0,0-.9-2.18,2.9,2.9,0,0,0-2.155-.924A3.064,3.064,0,0,0,34.6,31.894,3.156,3.156,0,0,0,37.7,35Z" transform="translate(0 0)" fill="#33a2ff"/>
  </g>
</svg>
